<mxfile host="app.diagrams.net" modified="2023-06-29T03:50:21.469Z" agent="Mozilla/5.0 (Windows NT 10.0; Win64; x64) AppleWebKit/537.36 (KHTML, like Gecko) Chrome/114.0.0.0 Safari/537.36" version="21.5.2" etag="lCBeebgNLy_DjUqZmnot" type="github">
  <diagram name="Trang-1" id="VgknwhjV7b3i7NEMULQw">
    <mxGraphModel>
      <root>
        <mxCell id="0" />
        <mxCell id="1" parent="0" />
      </root>
    </mxGraphModel>
  </diagram>
</mxfile>
